HIERARCHY
ROOT SpineBase
{
  OFFSET 0.000000 0.000000 0.000000
  CHANNELS 6 Xposition Yposition Zposition Zrotation Xrotation Yrotation
  JOINT SpineMid
  {
    OFFSET 0.000000 24.113197 0.000000
    CHANNELS 3 Zrotation Xrotation Yrotation
    JOINT SpineShoulder
    {
      OFFSET -0.140331 18.064084 -0.540376
      CHANNELS 3 Zrotation Xrotation Yrotation
      JOINT Neck
      {
        OFFSET -0.023163 5.958881 -0.422177
        CHANNELS 3 Zrotation Xrotation Yrotation
        JOINT Head
        {
          OFFSET 0.277518 12.674717 0.928259
          CHANNELS 3 Zrotation Xrotation Yrotation
          End Site
          {
            OFFSET 0 0 0
          }
        }
      }
      JOINT ShoulderLeft
      {
        OFFSET -12.451566 -2.624291 3.445717
        CHANNELS 3 Zrotation Xrotation Yrotation
        JOINT ElbowLeft
        {
          OFFSET 1.361869 -21.959587 -6.099493
          CHANNELS 3 Zrotation Xrotation Yrotation
          JOINT WristLeft
          {
            OFFSET -3.395516 -19.490805 1.002512
            CHANNELS 3 Zrotation Xrotation Yrotation
            JOINT HandLeft
            {
              OFFSET 2.698606 -1.178328 -3.885381
              CHANNELS 3 Zrotation Xrotation Yrotation
              JOINT HandTipLeft
              {
                OFFSET 0.723890 -4.355612 -1.013955
                CHANNELS 3 Zrotation Xrotation Yrotation
                End Site
                {
                  OFFSET 0 0 0
                }
              }
              JOINT ThumbLeft
              {
                OFFSET -1.870531 1.274992 -0.413387
                CHANNELS 3 Zrotation Xrotation Yrotation
                End Site
                {
                  OFFSET 0 0 0
                }
              }
            }
          }
        }
      }
      JOINT ShoulderRight
      {
        OFFSET 11.872023 -5.340743 -7.491910
        CHANNELS 3 Zrotation Xrotation Yrotation
        JOINT ElbowRight
        {
          OFFSET 3.402169 -21.738355 -4.358749
          CHANNELS 3 Zrotation Xrotation Yrotation
          JOINT WristRight
          {
            OFFSET -6.938248 -16.312411 -4.666490
            CHANNELS 3 Zrotation Xrotation Yrotation
            JOINT HandRight
            {
              OFFSET -4.477401 -5.394443 -2.421282
              CHANNELS 3 Zrotation Xrotation Yrotation
              JOINT HandTipRight
              {
                OFFSET -4.025137 -5.661192 -2.623286
                CHANNELS 3 Zrotation Xrotation Yrotation
                End Site
                {
                  OFFSET 0 0 0
                }
              }
              JOINT ThumbRight
              {
                OFFSET -0.372922 -2.132713 -1.835778
                CHANNELS 3 Zrotation Xrotation Yrotation
                End Site
                {
                  OFFSET 0 0 0
                }
              }
            }
          }
        }
      }
    }
  }
  JOINT HipLeft
  {
    OFFSET -6.775601 -0.047476 -1.175879
    CHANNELS 3 Zrotation Xrotation Yrotation
    JOINT KneeLeft
    {
      OFFSET 4.800557 -24.728609 -4.241506
      CHANNELS 3 Zrotation Xrotation Yrotation
      JOINT AnkleLeft
      {
        OFFSET 12.348680 -25.140406 5.496262
        CHANNELS 3 Zrotation Xrotation Yrotation
        JOINT FootLeft
        {
          OFFSET -1.485732 8.877581 -1.042855
          CHANNELS 3 Zrotation Xrotation Yrotation
          End Site
          {
            OFFSET 0 0 0
          }
        }
      }
    }
  }
  JOINT HipRight
  {
    OFFSET 5.452571 1.186320 -4.598593
    CHANNELS 3 Zrotation Xrotation Yrotation
    JOINT KneeRight
    {
      OFFSET -0.515499 -24.400292 -7.905030
      CHANNELS 3 Zrotation Xrotation Yrotation
      JOINT AnkleRight
      {
        OFFSET 4.331201 -21.124484 15.149261
        CHANNELS 3 Zrotation Xrotation Yrotation
        JOINT FootRight
        {
          OFFSET -2.897244 6.242823 -6.341198
          CHANNELS 3 Zrotation Xrotation Yrotation
          End Site
          {
            OFFSET 0 0 0
          }
        }
      }
    }
  }
}
MOTION
Frames: 9
Frame Time: 0.033333
84.182047 43.439839 428.430295 -3.119859 -16.283408 16.310667 2.161089 2.870623 -17.052552 0.095575 -1.563860 -0.055401 14.049486 39.573796 -7.094117 0.000000 0.000000 0.000000 0.999228 3.977135 -0.403241 22.636761 -22.291250 10.055116 -90.887608 -21.592447 -59.051742 56.947932 53.771667 -2.652804 0.000000 0.000000 0.000000 0.000000 0.000000 0.000000 -70.474738 44.315930 59.494417 -124.626608 24.644152 -3.443802 -82.834860 -21.174887 156.644822 131.066232 -62.571631 132.963609 0.000000 0.000000 0.000000 0.000000 0.000000 0.000000 -101.403019 -25.552457 -31.544102 137.531499 15.308162 -56.739535 -60.275330 -76.718678 -50.466990 0.000000 0.000000 0.000000 110.869672 -16.463540 -62.068159 -119.203009 -28.385533 -31.947027 104.838351 -62.272763 74.310644 0.000000 0.000000 0.000000
84.299987 45.966717 428.350959 -2.520556 -13.844966 7.137890 1.333648 2.480244 -7.668205 0.173368 -1.332583 -0.040779 32.452628 56.303140 -21.766342 0.000000 0.000000 0.000000 1.442697 1.153673 -0.795274 17.477724 -15.925255 7.452759 -90.770634 -35.572718 -47.780944 53.652144 40.741345 -14.815750 0.000000 0.000000 0.000000 0.000000 0.000000 0.000000 -57.562208 49.649950 50.137278 162.311561 48.059566 178.020323 23.344276 72.118137 -13.315941 103.494910 -52.098635 129.516754 0.000000 0.000000 0.000000 0.000000 0.000000 0.000000 -89.016511 -35.273533 -33.333105 129.476923 21.218708 -55.692912 -18.566214 -73.579625 -11.797686 0.000000 0.000000 0.000000 91.326469 6.903565 -58.296086 -91.597953 -29.030004 -18.726647 100.581631 -62.824031 71.627207 0.000000 0.000000 0.000000
84.891970 52.254255 428.101338 -2.146969 -10.669657 2.355068 0.655453 1.804397 -2.700414 0.398469 -0.863724 -0.043072 121.523560 49.582483 -92.982423 0.000000 0.000000 0.000000 1.755022 -2.299434 -0.964400 13.811026 -3.746444 3.554787 -82.116060 -46.435804 -34.150289 42.860598 28.885198 -21.195772 0.000000 0.000000 0.000000 0.000000 0.000000 0.000000 -30.327659 50.635325 28.416339 157.243035 10.852596 143.751174 -22.814627 50.776395 48.153253 -8.626228 -25.388908 -165.035313 0.000000 0.000000 0.000000 0.000000 0.000000 0.000000 -61.758079 -36.283353 -21.673409 104.658205 30.092235 -42.582885 4.706549 -54.512417 4.420624 0.000000 0.000000 0.000000 37.440741 16.402455 -22.097044 -39.674415 -3.839722 2.367996 83.503875 -65.718073 57.451544 0.000000 0.000000 0.000000
85.381446 56.042623 427.036000 -2.161313 -8.043659 0.102186 0.303051 0.928065 -0.370722 0.493039 -0.583313 -0.052482 148.413612 25.896302 -105.383711 0.000000 0.000000 0.000000 1.963470 -4.504449 -0.941561 10.704847 1.496998 2.164936 -69.701912 -50.675746 -18.221700 31.235028 20.367853 -24.246698 0.000000 0.000000 0.000000 0.000000 0.000000 0.000000 -2.736772 43.498059 7.967479 131.944494 -59.987510 146.201325 12.393530 4.193520 24.742474 14.066432 -20.696488 -118.627338 0.000000 0.000000 0.000000 0.000000 0.000000 0.000000 -45.656925 -36.503618 -16.520009 81.847338 35.548424 -32.351195 6.915506 -45.842972 3.196275 0.000000 0.000000 0.000000 10.798531 -2.106421 -3.559088 -14.809895 23.227139 4.820628 97.337226 -71.190834 73.067529 0.000000 0.000000 0.000000
85.784989 59.533581 426.267089 -2.636996 -6.566574 -1.539025 -0.052905 0.583125 1.277449 0.635303 0.124813 -0.070920 154.485570 16.539478 -99.850049 0.000000 0.000000 0.000000 2.228874 -6.023089 -0.755856 8.907457 4.137610 1.408524 -56.264067 -50.094963 -2.862560 21.299641 13.060384 -27.446785 0.000000 0.000000 0.000000 0.000000 0.000000 0.000000 13.083182 30.094746 -1.664592 26.744986 -76.876538 54.714574 18.911862 3.645612 -0.953389 24.781250 -17.810947 -55.909441 0.000000 0.000000 0.000000 0.000000 0.000000 0.000000 -32.409041 -34.228614 -11.010203 54.324575 36.423477 -19.061524 10.209058 -39.908882 2.002861 0.000000 0.000000 0.000000 5.295288 -11.957198 0.967202 -1.700038 32.796704 4.419834 97.829888 -67.407107 79.852170 0.000000 0.000000 0.000000
86.185338 62.776361 425.549279 -2.969572 -5.394955 -1.745832 -0.336486 -0.093571 1.478143 0.913376 0.683266 -0.075535 158.078564 14.193794 -101.424078 0.000000 0.000000 0.000000 1.788906 -6.197993 -0.450637 7.922246 5.610006 0.738015 -50.519766 -50.312864 3.203755 17.711202 9.730678 -30.707654 0.000000 0.000000 0.000000 0.000000 0.000000 0.000000 16.844354 21.311202 -3.344507 3.437328 -67.622019 35.707521 13.436977 39.589984 -22.019092 54.161859 -28.854361 -4.548094 0.000000 0.000000 0.000000 0.000000 0.000000 0.000000 -23.674043 -29.840519 -7.430151 25.362053 31.835557 -6.938705 6.737779 -35.269448 -2.416648 0.000000 0.000000 0.000000 5.774351 -16.870906 1.466405 0.135912 36.242670 4.472925 103.539481 -64.309262 86.749481 0.000000 0.000000 0.000000
86.351033 63.738269 425.430901 -3.377531 -4.891651 -1.158074 -0.321600 -0.057079 0.877024 1.013165 0.664314 -0.085417 157.460671 12.854981 -95.139427 0.000000 0.000000 0.000000 0.881986 -5.214935 0.000561 8.217916 4.373044 0.389714 -45.046166 -48.776694 10.070410 15.103827 5.904982 -34.872338 0.000000 0.000000 0.000000 0.000000 0.000000 0.000000 17.173396 14.724461 -3.444245 1.683604 -60.966277 34.304436 18.533735 50.525982 -34.414312 61.928305 -27.114032 13.100062 0.000000 0.000000 0.000000 0.000000 0.000000 0.000000 -16.313379 -27.808637 -6.779432 4.587749 26.049451 -1.483246 4.813159 -31.291009 -3.708832 0.000000 0.000000 0.000000 5.664093 -17.723345 0.966884 1.889387 35.574997 4.181319 97.615351 -63.102091 82.103119 0.000000 0.000000 0.000000
86.271809 62.422290 425.796418 -3.855067 -5.010854 1.752704 -0.214203 0.177870 -2.065002 1.150522 0.374332 -0.103385 152.816952 12.662917 -83.597605 0.000000 0.000000 0.000000 -0.485352 -5.376748 0.428717 10.378119 3.973904 -0.108454 -42.247724 -46.687379 15.067187 11.670057 5.436943 -35.412630 0.000000 0.000000 0.000000 0.000000 0.000000 0.000000 16.330196 9.123077 -3.363838 4.179052 -52.166139 32.349938 19.018250 48.599028 -37.824492 62.350451 -23.832196 12.149455 0.000000 0.000000 0.000000 0.000000 0.000000 0.000000 -11.579893 -29.041765 -10.535249 -11.149711 27.306721 5.475102 8.644824 -30.157228 -3.818245 0.000000 0.000000 0.000000 7.765942 -16.472362 -2.780425 -3.321388 32.825754 5.271874 72.705667 -61.227494 57.409318 0.000000 0.000000 0.000000
86.783136 62.861874 425.585175 -2.499797 -5.208462 5.515392 -0.389481 0.068050 -5.736887 1.166037 0.212697 -0.063884 149.804765 13.391809 -82.427698 0.000000 0.000000 0.000000 -1.866490 -5.040235 0.453538 10.483922 4.074160 -0.174544 -41.242564 -45.356962 15.087765 9.918275 3.565024 -34.890512 0.000000 0.000000 0.000000 0.000000 0.000000 0.000000 20.782959 4.906433 -5.306458 -7.390094 -43.895441 28.250219 16.281470 38.974248 -29.087549 25.958026 -10.665651 -2.783335 0.000000 0.000000 0.000000 0.000000 0.000000 0.000000 -10.774045 -27.597875 -14.055939 -24.325764 25.231642 10.083813 10.862744 -24.711702 -2.996480 0.000000 0.000000 0.000000 5.099373 -17.672298 -6.524207 -3.113118 33.421460 5.065850 56.885409 -56.153907 43.479536 0.000000 0.000000 0.000000
